<?xml version="1.0" standalone="no"?>
<!DOCTYPE svg PUBLIC "-//W3C//DTD SVG 20010904//EN"
 "http://www.w3.org/TR/2001/REC-SVG-20010904/DTD/svg10.dtd">
<svg version="1.0" xmlns="http://www.w3.org/2000/svg"
 width="657.000000pt" height="657.000000pt" viewBox="0 0 657.000000 657.000000"
 preserveAspectRatio="xMidYMid meet">
<metadata>
Created by potrace 1.14, written by Peter Selinger 2001-2017
</metadata>
<g transform="translate(0.000000,657.000000) scale(0.100000,-0.100000)"
fill="#000000" stroke="none">
<path d="M3176 6523 c-1 -1 -45 -5 -97 -7 -52 -2 -94 -5 -94 -6 0 -1 -22 -3
-50 -5 -50 -4 -93 -9 -150 -19 -16 -3 -48 -8 -70 -11 -22 -3 -49 -8 -60 -12
-11 -4 -27 -8 -35 -9 -8 -1 -31 -5 -50 -9 -19 -4 -41 -7 -47 -7 -7 -1 -13 -4
-13 -8 0 -3 -9 -7 -20 -8 -11 -1 -28 -2 -37 -3 -10 -1 -24 -6 -30 -12 -7 -5
-13 -7 -13 -4 0 4 -19 -1 -42 -9 -24 -9 -53 -17 -65 -18 -13 -2 -29 -9 -38
-16 -8 -7 -15 -10 -15 -6 0 3 -16 0 -35 -8 -19 -8 -35 -13 -35 -10 0 3 -10 -1
-22 -8 -13 -7 -26 -13 -30 -14 -5 -1 -9 -2 -10 -3 -2 -2 -14 -5 -28 -7 -13 -2
-27 -9 -31 -15 -3 -6 -10 -10 -15 -10 -5 1 -22 -4 -39 -10 -16 -7 -36 -13 -44
-15 -8 -1 -17 -8 -21 -14 -4 -7 -10 -11 -14 -11 -23 3 -36 0 -31 -9 3 -6 -1
-7 -9 -4 -9 3 -16 1 -16 -5 0 -6 -3 -10 -7 -9 -15 4 -53 -13 -53 -23 0 -6 -4
-7 -10 -4 -5 3 -10 1 -10 -5 0 -7 -7 -9 -15 -6 -9 3 -18 -1 -21 -9 -4 -8 -10
-13 -14 -10 -5 3 -14 -1 -22 -8 -7 -7 -16 -14 -21 -15 -17 -4 -73 -36 -79 -46
-4 -6 -8 -7 -8 -2 0 6 -7 1 -16 -10 -8 -10 -12 -12 -8 -4 7 13 6 13 -12 0 -10
-8 -22 -19 -26 -25 -4 -5 -12 -10 -18 -10 -6 0 -14 -6 -19 -13 -5 -8 -11 -13
-15 -13 -20 3 -26 0 -20 -11 4 -6 3 -8 -3 -5 -13 8 -65 -27 -56 -38 5 -4 3 -5
-3 -2 -6 3 -32 -9 -59 -28 -48 -35 -72 -55 -46 -40 10 6 12 4 7 -4 -5 -7 -10
-10 -13 -7 -10 10 -44 -15 -37 -26 4 -7 3 -8 -4 -4 -6 3 -16 -3 -22 -14 -6
-11 -17 -20 -25 -20 -8 0 -15 -4 -15 -10 0 -5 -6 -10 -14 -10 -7 0 -20 -8 -27
-17 -12 -15 -12 -16 1 -8 9 5 12 5 7 -1 -5 -5 -12 -9 -15 -9 -15 -1 -52 -30
-52 -41 0 -6 -8 -18 -18 -25 -16 -13 -16 -12 -3 6 8 11 -7 -1 -32 -27 -26 -27
-47 -45 -47 -40 -1 4 -7 -4 -15 -18 -8 -14 -14 -22 -15 -18 0 4 -13 -5 -29
-20 -17 -15 -30 -31 -30 -36 1 -5 -12 -17 -28 -27 -15 -10 -24 -19 -20 -19 5
0 -7 -15 -25 -33 -40 -39 -80 -87 -72 -87 3 0 -8 -12 -23 -26 -15 -14 -22 -22
-14 -18 9 5 12 3 7 -4 -4 -7 -14 -12 -22 -12 -8 0 -13 -4 -10 -9 3 -5 -1 -12
-10 -15 -9 -4 -15 -9 -12 -12 3 -2 -10 -21 -28 -41 -19 -20 -34 -43 -34 -50 0
-7 -4 -13 -8 -13 -10 0 -102 -136 -102 -150 0 -6 -5 -10 -11 -10 -5 0 -7 -4
-4 -10 3 -5 1 -10 -4 -10 -6 0 -11 -7 -11 -15 0 -8 -4 -15 -10 -15 -5 0 -10
-5 -10 -11 0 -6 -9 -24 -21 -40 -11 -16 -17 -29 -13 -29 4 0 0 -6 -11 -13 -10
-8 -15 -19 -12 -24 4 -6 0 -14 -9 -17 -8 -3 -12 -10 -9 -16 3 -5 1 -10 -5 -10
-6 0 -9 -4 -6 -9 3 -5 -1 -14 -9 -21 -8 -7 -15 -18 -15 -25 0 -7 -7 -18 -15
-25 -9 -7 -14 -19 -11 -26 3 -7 -2 -18 -9 -24 -8 -7 -14 -15 -13 -18 1 -4 -8
-27 -20 -51 -12 -24 -19 -48 -15 -54 4 -6 1 -7 -7 -2 -10 6 -12 4 -7 -8 3 -10
3 -17 -2 -17 -8 0 -24 -41 -25 -65 -1 -5 -4 -13 -9 -16 -4 -3 -9 -14 -12 -25
-2 -10 -13 -43 -24 -71 -12 -29 -18 -53 -15 -53 4 0 1 -7 -6 -15 -6 -8 -9 -19
-5 -25 3 -5 1 -10 -4 -10 -6 0 -11 -11 -11 -23 0 -13 -3 -27 -8 -31 -4 -4 -8
-16 -8 -27 -1 -10 -3 -21 -4 -24 -1 -3 -4 -9 -5 -15 -1 -5 -4 -12 -5 -15 -1
-3 -4 -9 -5 -15 -1 -5 -4 -11 -5 -12 -3 -3 -8 -31 -14 -73 -2 -16 -5 -30 -6
-30 -3 0 -13 -50 -14 -72 -1 -13 -3 -23 -6 -23 -5 0 -8 -23 -13 -92 -1 -16 -4
-28 -7 -28 -3 0 -6 -15 -7 -32 -1 -18 -4 -53 -7 -78 -16 -117 -28 -542 -17
-565 3 -5 6 -32 7 -60 2 -63 17 -196 28 -262 3 -18 8 -45 10 -60 12 -76 17
-99 32 -156 3 -12 6 -30 6 -39 -1 -10 4 -20 9 -23 5 -4 7 -11 4 -16 -4 -5 -3
-15 2 -21 8 -13 13 -33 15 -55 1 -7 4 -13 8 -13 3 0 6 -8 7 -17 2 -31 12 -66
22 -76 5 -5 7 -16 4 -23 -3 -8 0 -14 6 -14 6 0 8 -7 5 -15 -4 -8 -1 -15 5 -15
6 0 8 -7 5 -15 -4 -8 -1 -15 6 -15 6 0 9 -4 5 -9 -3 -5 -1 -12 4 -16 6 -3 7
-13 4 -22 -4 -11 -3 -14 5 -9 8 5 10 2 6 -8 -4 -10 -1 -16 7 -16 7 0 9 -3 6
-7 -4 -3 -2 -12 4 -20 6 -7 8 -13 4 -13 -5 0 0 -10 11 -22 10 -12 13 -18 7
-14 -9 5 -11 2 -7 -8 3 -9 10 -16 16 -16 5 0 7 -4 3 -9 -3 -5 -1 -12 5 -16 6
-4 8 -11 5 -16 -4 -5 -2 -9 3 -9 9 0 18 -19 27 -57 2 -7 13 -27 26 -44 13 -18
16 -29 8 -24 -12 7 -12 6 1 -11 8 -10 19 -22 23 -25 5 -3 9 -10 9 -15 1 -20
18 -54 28 -54 5 0 9 -3 8 -7 -4 -14 35 -92 44 -87 4 3 8 -4 8 -14 0 -11 7 -25
15 -32 8 -7 15 -19 15 -26 0 -8 4 -14 8 -14 5 0 15 -12 23 -27 8 -16 19 -33
24 -40 6 -7 15 -19 22 -27 6 -7 9 -17 6 -20 -4 -3 -1 -6 5 -6 7 0 12 -4 12 -9
0 -6 16 -27 35 -48 19 -21 35 -44 35 -50 0 -7 5 -13 10 -13 6 0 10 -6 10 -14
0 -8 14 -26 31 -40 17 -14 27 -26 23 -26 -4 0 5 -11 20 -25 14 -13 26 -29 26
-35 0 -6 4 -8 10 -5 5 3 10 0 10 -7 0 -7 21 -33 48 -57 26 -25 40 -41 32 -36
-8 5 2 -8 22 -28 21 -20 43 -37 49 -37 7 0 10 -3 6 -6 -3 -3 11 -20 31 -37 20
-18 39 -35 40 -39 2 -5 10 -8 17 -8 8 0 17 -5 21 -12 5 -7 3 -8 -6 -3 -9 5
-11 4 -6 -3 4 -7 14 -12 22 -12 8 0 14 -7 14 -15 0 -8 7 -15 15 -15 8 0 15 -5
15 -11 0 -5 5 -7 10 -4 5 3 10 -1 10 -9 0 -9 6 -16 14 -16 8 0 17 -7 20 -16 4
-9 9 -14 12 -11 3 3 21 -9 39 -28 19 -18 35 -31 38 -29 2 2 12 -5 22 -16 10
-11 24 -20 32 -20 7 0 16 -7 19 -15 4 -8 10 -12 15 -9 5 3 9 1 9 -4 0 -5 12
-15 28 -23 15 -8 36 -22 46 -31 11 -10 26 -18 33 -18 7 0 13 -5 13 -11 0 -5 4
-8 9 -5 5 3 11 -1 15 -9 3 -8 15 -15 26 -15 12 0 19 -4 15 -9 -3 -5 11 -15 30
-22 19 -7 35 -17 35 -23 0 -5 3 -7 6 -3 4 3 13 -1 21 -9 8 -8 19 -12 24 -9 5
4 9 2 9 -3 0 -9 47 -36 65 -37 6 0 16 -6 23 -13 8 -7 18 -10 23 -7 5 4 9 2 9
-3 0 -10 86 -56 105 -57 6 0 12 -2 15 -5 14 -14 70 -38 64 -27 -4 6 2 3 14 -7
12 -11 22 -16 22 -12 0 3 10 0 23 -9 13 -8 27 -12 30 -8 4 3 7 1 7 -6 0 -8 7
-11 15 -7 8 3 15 1 15 -5 0 -6 5 -7 10 -4 6 3 10 1 10 -4 0 -6 3 -10 8 -10 4
1 10 0 15 -1 4 -1 12 -4 17 -5 6 -1 11 -3 13 -4 1 -2 13 -4 26 -7 14 -2 30 -9
37 -15 7 -6 18 -8 24 -4 5 3 10 1 10 -5 0 -7 7 -10 15 -7 8 4 17 2 21 -4 3 -6
12 -8 20 -5 8 3 14 1 14 -5 0 -6 4 -8 9 -4 5 3 13 0 16 -6 4 -5 13 -8 21 -5 7
3 16 1 20 -5 3 -6 12 -8 20 -5 8 3 14 2 14 -2 0 -4 10 -8 23 -9 23 -2 62 -10
62 -13 0 -1 7 -3 15 -5 53 -13 78 -18 103 -19 15 0 27 -4 27 -7 0 -3 10 -5 23
-5 12 1 27 -1 32 -5 6 -4 20 -6 30 -5 11 2 25 1 30 -2 12 -8 31 -10 230 -28
79 -8 451 -7 540 0 112 9 280 31 280 36 0 1 14 3 30 5 17 1 30 3 30 5 0 1 9 3
20 5 65 10 123 21 135 25 3 1 10 3 15 5 6 1 12 3 15 4 3 2 13 4 23 7 9 2 25 6
35 8 9 3 19 5 22 6 3 1 10 3 15 5 6 1 12 3 15 4 3 2 12 4 21 6 28 5 164 50
169 55 3 3 14 7 25 8 11 2 22 7 25 10 3 4 16 9 30 11 14 1 27 6 30 10 3 3 14
8 25 9 11 2 21 8 23 12 2 5 10 6 18 3 8 -3 14 0 14 6 0 6 9 11 20 11 11 0 20
5 20 11 0 5 4 8 9 5 5 -3 20 4 35 15 14 11 30 17 36 14 5 -3 10 -1 10 5 0 6 5
8 10 5 6 -3 10 -1 10 4 0 6 3 11 8 10 15 -2 52 14 52 22 0 5 3 8 8 7 12 -2 46
15 60 31 11 13 12 13 6 1 -5 -8 9 -2 31 14 21 16 35 23 30 15 -4 -8 4 -3 18
10 15 14 27 21 27 16 0 -5 7 0 16 11 8 10 13 12 9 4 -4 -8 1 -6 9 4 9 11 16
16 16 12 0 -4 20 7 44 24 25 16 49 30 55 30 5 0 17 10 25 22 9 12 16 18 16 13
0 -6 10 1 21 15 11 14 18 18 14 10 -4 -8 6 -1 21 15 15 17 30 30 33 29 12 -2
80 46 90 63 6 10 11 14 11 8 0 -5 10 1 23 15 12 14 18 19 13 10 -5 -8 5 -1 22
17 17 17 32 29 35 27 2 -3 16 9 30 26 14 16 29 30 33 30 4 0 40 33 81 74 40
41 73 72 73 69 0 -3 10 7 22 22 12 16 44 51 70 79 26 28 48 56 48 63 0 6 9 15
20 18 11 3 20 11 20 16 0 21 2 24 21 31 10 4 19 14 19 22 0 7 7 16 15 20 8 3
15 15 15 26 0 12 4 19 9 15 12 -7 33 29 23 40 -4 5 -2 5 5 1 7 -3 14 2 18 14
3 11 11 20 17 20 6 0 9 3 6 6 -4 3 2 14 13 25 11 11 17 25 13 31 -4 7 -3 8 4
4 7 -4 12 -1 12 7 0 8 7 18 16 21 8 3 13 10 10 15 -4 5 -3 11 1 13 9 3 63 84
63 93 0 4 7 13 15 22 8 8 13 18 10 23 -3 4 2 11 11 14 8 3 13 10 10 15 -4 5
-2 11 3 13 5 1 11 10 13 18 2 8 11 23 21 34 10 11 15 26 13 33 -3 7 -1 13 4
13 5 0 12 11 16 25 3 14 11 25 16 25 5 0 8 6 5 13 -2 6 3 18 12 25 13 11 13
12 1 6 -11 -6 -10 -2 3 13 9 11 14 23 10 26 -3 4 -1 7 6 7 7 0 9 5 6 10 -3 6
-2 10 3 10 9 0 27 47 24 63 -1 4 3 7 9 7 6 0 9 7 5 15 -3 8 -2 15 3 15 9 0 26
48 23 63 -1 4 3 7 9 7 6 0 9 7 5 15 -3 8 -2 15 3 15 4 0 8 6 9 13 2 22 7 42
16 55 4 7 6 16 2 19 -3 3 1 12 9 19 7 8 12 22 11 31 -2 10 0 20 4 23 5 3 11
19 14 35 3 17 10 48 16 70 6 22 13 47 15 55 2 8 4 15 6 15 1 0 3 14 4 30 2 17
4 30 5 30 5 0 23 93 24 123 0 12 4 22 8 22 4 0 7 10 7 23 0 12 2 38 5 57 7 37
11 73 23 185 8 85 8 507 0 590 -17 168 -23 218 -27 223 -1 1 -4 11 -5 22 -1
11 -4 21 -5 23 -1 1 -3 13 -5 27 -2 14 -7 39 -10 55 -4 17 -8 39 -10 50 -1 11
-4 21 -5 23 -1 1 -4 11 -5 22 -1 11 -3 21 -5 23 -2 3 -9 28 -16 62 -3 17 -8
37 -11 45 -4 8 -5 19 -4 23 0 4 -5 20 -14 36 -8 16 -11 31 -8 35 4 3 1 6 -6 6
-7 0 -10 4 -6 10 3 5 1 17 -4 27 -5 10 -15 39 -23 66 -7 26 -17 47 -22 47 -5
0 -6 3 -3 7 4 3 2 12 -4 20 -6 7 -8 13 -5 13 4 0 1 10 -6 23 -7 12 -11 25 -10
30 1 4 -2 7 -6 7 -4 0 -9 10 -9 22 -1 13 -7 24 -13 26 -5 2 -8 8 -4 13 3 5 0
9 -7 9 -7 0 -10 3 -6 6 3 4 -5 28 -19 55 -13 27 -21 49 -17 49 4 0 -2 7 -13
16 -10 8 -12 12 -4 8 8 -4 4 4 -9 19 -12 14 -20 30 -16 36 3 6 1 11 -4 11 -6
0 -11 7 -11 15 0 8 -4 15 -10 15 -5 0 -10 6 -10 14 0 8 -7 22 -16 30 -8 9 -13
16 -9 16 3 0 -2 12 -12 28 -10 15 -28 44 -38 65 -11 20 -23 37 -28 37 -4 0 -5
5 -2 10 3 6 1 10 -5 10 -6 0 -8 5 -5 10 3 6 -1 10 -10 10 -9 0 -13 5 -10 10 3
6 2 10 -4 10 -6 0 -13 11 -17 25 -3 14 -10 25 -15 25 -5 0 -9 6 -9 13 0 7 -9
19 -19 27 -11 7 -18 17 -15 22 3 4 0 8 -5 8 -6 0 -10 6 -9 13 2 6 -3 11 -10 9
-8 -1 -11 2 -8 7 4 5 -3 16 -14 24 -11 7 -18 16 -15 19 3 2 -10 21 -29 41 -19
20 -31 37 -28 37 3 0 -7 11 -22 25 -14 13 -26 29 -26 34 0 6 -11 18 -25 27
-14 9 -24 19 -21 21 6 7 -32 43 -46 43 -6 0 -8 3 -5 7 4 3 -6 19 -22 34 -16
15 -27 30 -24 32 2 3 -5 8 -16 12 -12 3 -19 11 -16 16 4 5 0 9 -8 9 -8 0 -17
9 -20 20 -3 11 -13 23 -24 27 -10 3 -28 16 -40 27 -11 12 -43 42 -71 69 -27
26 -52 47 -55 47 -7 0 -18 10 -76 63 -13 12 -20 15 -16 7 4 -8 -6 -1 -22 15
-16 17 -35 31 -43 33 -8 2 -20 12 -28 23 -7 10 -18 19 -25 19 -6 0 -24 12 -40
28 -17 15 -26 20 -22 12 5 -8 -4 -3 -19 12 -16 15 -32 26 -36 23 -4 -3 -10 2
-14 10 -3 8 -12 15 -21 15 -8 0 -15 5 -15 11 0 5 -4 7 -10 4 -5 -3 -10 -1 -10
6 0 7 -3 10 -6 6 -3 -3 -14 2 -25 11 -11 9 -21 15 -23 12 -1 -3 -10 3 -20 13
-10 9 -22 14 -28 11 -7 -4 -8 -2 -4 4 4 7 2 13 -3 13 -6 1 -16 2 -21 3 -6 0
-15 7 -19 15 -5 8 -14 10 -21 6 -9 -6 -11 -4 -5 5 6 10 4 12 -7 7 -9 -3 -24 3
-34 14 -9 10 -25 19 -35 19 -9 0 -19 5 -21 10 -2 6 -13 12 -26 13 -12 0 -22 4
-22 8 0 7 -91 44 -102 41 -5 -1 -8 3 -8 9 0 5 -4 7 -10 4 -5 -3 -10 -1 -10 5
0 7 -7 10 -15 6 -8 -3 -15 -1 -15 5 0 6 -4 7 -10 4 -5 -3 -10 -2 -10 2 0 9
-89 39 -102 35 -5 -1 -8 3 -8 10 0 6 -3 9 -6 5 -4 -3 -20 1 -36 9 -17 9 -32
13 -36 10 -3 -3 -14 2 -25 11 -15 13 -18 14 -12 3 7 -12 6 -13 -6 -4 -8 6 -32
16 -54 22 -22 6 -51 15 -65 19 -14 4 -29 8 -35 9 -5 1 -12 3 -15 4 -11 4 -46
11 -67 13 -13 1 -23 5 -23 9 0 4 -9 5 -20 3 -11 -2 -20 0 -20 5 0 5 -13 8 -30
6 -16 -2 -30 0 -30 4 0 4 -6 7 -12 8 -16 1 -84 11 -123 17 -16 3 -50 8 -75 10
-25 2 -65 7 -90 10 -97 12 -426 26 -434 18z m-2326 -1077 c0 -2 -8 -10 -17
-17 -16 -13 -17 -12 -4 4 13 16 21 21 21 13z m-139 -4183 c13 -16 12 -17 -3
-4 -10 7 -18 15 -18 17 0 8 8 3 21 -13z"/>
</g>
</svg>
