<?xml version="1.0" standalone="no"?>
<!DOCTYPE svg PUBLIC "-//W3C//DTD SVG 20010904//EN"
 "http://www.w3.org/TR/2001/REC-SVG-20010904/DTD/svg10.dtd">
<svg version="1.0" xmlns="http://www.w3.org/2000/svg"
 width="75" height="75" viewBox="50 60 200 150"
 preserveAspectRatio="xMidYMid meet">

<g transform="translate(0.000000,300.000000) scale(0.100000,-0.100000)"
fill="#000000" stroke="none">
<path d="M1056 2360 c-15 -5 -37 -17 -48 -27 -45 -40 -48 -64 -48 -401 0 -315
0 -319 23 -353 40 -60 72 -69 250 -69 l157 0 0 -24 c0 -45 -10 -56 -51 -56
-32 0 -40 -4 -45 -24 -3 -13 -4 -37 -2 -52 l3 -29 205 0 205 0 3 29 c2 15 1
39 -2 52 -5 20 -13 24 -45 24 -41 0 -51 11 -51 56 l0 24 158 0 c177 0 209 9
249 69 23 34 23 38 23 355 0 353 -2 365 -63 410 -28 20 -41 21 -460 23 -238 1
-445 -2 -461 -7z m882 -86 c22 -15 22 -16 22 -331 0 -280 -2 -319 -17 -335
-15 -17 -42 -18 -441 -18 -382 0 -427 2 -444 17 -17 15 -18 39 -18 334 0 317
0 318 22 333 19 14 78 16 438 16 360 0 419 -2 438 -16z m-374 -780 c3 -9 6
-27 6 -40 0 -23 -3 -24 -70 -24 -67 0 -70 1 -70 24 0 49 8 56 70 56 44 0 59
-4 64 -16z m99 -119 c-3 -10 -296 -20 -321 -10 -7 3 -10 10 -7 15 9 14 331 9
328 -5z"/>
<path d="M1277 2051 c-48 -48 -87 -94 -87 -101 0 -17 171 -191 184 -187 5 2
14 10 20 19 8 13 -3 31 -57 87 -37 39 -67 75 -67 80 0 5 30 41 67 81 53 57 65
75 57 88 -6 9 -15 17 -20 19 -6 2 -49 -37 -97 -86z"/>
<path d="M1618 2129 c-10 -5 -18 -15 -18 -21 0 -5 29 -42 65 -80 36 -39 65
-74 65 -79 0 -5 -30 -41 -67 -80 -54 -56 -65 -74 -57 -87 6 -9 15 -17 20 -19
13 -4 184 170 184 187 0 7 -39 53 -87 101 -73 74 -91 87 -105 78z"/>
<path d="M1537 2123 c-20 -33 -126 -330 -122 -341 3 -7 15 -12 27 -10 19 3 32
28 86 167 34 90 61 170 58 178 -6 14 -42 18 -49 6z"/>
<path d="M759 1228 c-1 -2 -9 -39 -18 -83 -14 -70 -19 -80 -39 -83 -17 -3 -25
2 -29 17 -3 14 -13 21 -29 21 -19 0 -24 -5 -24 -24 0 -35 26 -56 70 -56 56 0
79 24 95 100 20 92 19 110 -5 110 -11 0 -20 -1 -21 -2z"/>
<path d="M1278 1210 c-22 -17 -48 -95 -48 -146 0 -25 31 -44 71 -44 47 0 89
35 89 75 0 22 -4 25 -36 25 -34 0 -35 -1 -29 -30 6 -26 4 -30 -14 -30 -28 0
-32 11 -22 65 12 64 52 88 59 37 2 -16 10 -22 28 -22 23 0 29 12 24 50 -5 41
-80 54 -122 20z"/>
<path d="M1457 1224 c-14 -15 -6 -34 14 -34 14 0 19 5 17 17 -3 18 -20 27 -31
17z"/>
<path d="M1537 1224 c-14 -15 -6 -34 14 -34 14 0 19 5 17 17 -3 18 -20 27 -31
17z"/>
<path d="M834 1146 c-13 -10 -18 -27 -19 -67 0 -52 1 -54 28 -57 16 -2 35 2
43 9 10 8 14 8 14 0 0 -6 14 -11 30 -11 23 0 30 5 30 19 0 11 -5 21 -10 23 -7
2 -7 19 -2 50 l9 46 -52 1 c-29 0 -60 -6 -71 -13z m66 -51 c0 -26 -25 -44 -40
-29 -12 13 7 54 25 54 9 0 15 -9 15 -25z"/>
<path d="M1005 1137 c-24 -118 -24 -117 1 -117 19 0 24 7 29 38 10 55 13 62
31 62 13 0 16 -7 11 -36 -8 -48 0 -64 34 -64 22 0 29 5 29 20 0 11 -4 20 -9
20 -5 0 -9 21 -8 48 l2 47 -58 2 c-51 1 -58 -1 -62 -20z"/>
<path d="M1454 1153 c-34 -24 -47 -116 -18 -127 29 -11 82 -6 98 9 20 20 32
84 19 104 -11 17 -80 27 -99 14z m54 -60 c-4 -36 -38 -45 -38 -10 0 27 7 37
27 37 10 0 13 -9 11 -27z"/>
<path d="M1595 1136 c-24 -117 -24 -116 0 -116 18 0 25 7 30 33 12 57 16 67
31 67 8 0 14 -7 14 -15 0 -21 27 -19 39 2 18 32 -4 51 -59 51 -43 0 -51 -3
-55 -22z"/>
<path d="M1764 1152 c-30 -19 -47 -113 -24 -127 6 -4 4 -12 -5 -22 -9 -8 -15
-25 -13 -37 2 -17 11 -22 44 -24 55 -4 78 25 93 116 7 37 14 74 17 83 4 14 -4
17 -48 18 -29 0 -58 -3 -64 -7z m54 -59 c-4 -36 -38 -45 -38 -10 0 27 7 37 27
37 10 0 13 -9 11 -27z m-15 -91 c-3 -12 -12 -22 -19 -22 -20 0 -17 27 3 39 22
12 24 10 16 -17z"/>
<path d="M1924 1152 c-19 -13 -34 -50 -34 -86 0 -29 4 -37 24 -42 40 -10 78 0
94 24 16 24 15 24 -24 20 -21 -1 -41 2 -44 7 -3 6 15 11 43 13 41 3 47 6 47
26 0 12 -5 27 -12 34 -13 13 -76 16 -94 4z m56 -43 c0 -5 -10 -9 -21 -9 -18 0
-19 2 -9 15 12 15 30 12 30 -6z"/>
<path d="M2065 1137 c-24 -118 -24 -117 1 -117 19 0 24 7 29 38 10 55 13 62
31 62 13 0 16 -7 11 -36 -8 -48 0 -64 34 -64 22 0 29 5 29 20 0 11 -4 20 -9
20 -5 0 -9 21 -8 48 l2 47 -58 2 c-51 1 -58 -1 -62 -20z"/>
<path d="M2250 1140 c-11 -11 -20 -24 -20 -29 0 -13 22 -29 53 -36 44 -11 31
-25 -18 -18 -45 6 -56 -2 -33 -25 18 -18 94 -15 112 4 29 28 12 64 -30 64 -29
0 -41 18 -18 27 10 4 19 2 22 -5 2 -7 15 -12 28 -12 17 0 24 6 24 19 0 36 -87
44 -120 11z"/>
</g>
</svg>
