<?xml version="1.0" standalone="no"?>
<!DOCTYPE svg PUBLIC "-//W3C//DTD SVG 20010904//EN"
 "http://www.w3.org/TR/2001/REC-SVG-20010904/DTD/svg10.dtd">
<svg version="1.0" xmlns="http://www.w3.org/2000/svg"
 width="700.000000pt" height="700.000000pt" viewBox="0 0 700.000000 700.000000"
 preserveAspectRatio="xMidYMid meet">
<metadata>
Created by potrace 1.14, written by Peter Selinger 2001-2017
</metadata>
<g transform="translate(0.000000,700.000000) scale(0.100000,-0.100000)"
fill="#000000" stroke="none">
<path d="M2289 6006 c-2 -2 -78 -6 -169 -10 -161 -6 -166 -6 -237 -41 -86 -40
-174 -122 -202 -187 -33 -78 -47 -157 -58 -333 -10 -152 -10 -1876 -1 -1970
13 -120 26 -156 86 -237 144 -194 229 -214 947 -217 247 -1 452 -4 455 -6 4
-2 5 -43 3 -90 -5 -146 -36 -179 -170 -184 -149 -5 -167 -24 -170 -179 -1 -59
2 -125 5 -147 l7 -40 717 -1 716 -1 5 41 c3 23 4 89 3 147 -2 154 -23 179
-155 179 -110 0 -161 27 -177 94 -9 39 -12 163 -5 174 4 6 204 12 496 15 270
2 499 7 510 10 11 3 43 8 70 11 113 15 220 66 281 135 42 46 94 129 109 172
26 73 30 214 30 1099 0 1245 -5 1293 -146 1430 -95 93 -159 114 -394 126 -115
6 -2550 15 -2556 10z m2521 -279 c132 -12 178 -21 217 -43 50 -29 61 -56 73
-186 9 -104 6 -1907 -4 -1978 -13 -96 -17 -112 -30 -139 -30 -56 -62 -67 -231
-79 -146 -9 -2451 -9 -2632 1 -223 12 -274 36 -289 135 -4 26 -9 56 -12 67 -9
34 -10 1904 -1 1999 11 119 23 151 66 177 49 30 93 37 278 45 88 4 162 8 164
10 6 5 2340 -3 2401 -9z m-1123 -2740 c38 -20 53 -64 55 -157 3 -96 6 -95
-242 -95 -253 0 -246 -3 -243 110 2 105 26 140 108 158 11 3 81 4 155 3 107
-1 142 -5 167 -19z m56 -412 c98 -3 186 -8 195 -10 9 -1 41 -6 69 -10 71 -9
75 -22 11 -30 -29 -4 -64 -8 -78 -10 -78 -11 -347 -19 -648 -20 -329 0 -344 1
-358 19 -35 48 -18 54 166 63 74 3 136 6 137 7 4 3 352 -3 506 -9z"/>
<path d="M3025 5188 c-57 -33 -453 -429 -547 -547 -79 -99 -81 -89 33 -221 79
-92 384 -400 464 -468 80 -68 108 -66 150 12 l18 33 -31 54 c-18 30 -51 74
-73 99 -23 25 -86 92 -140 150 -119 128 -199 227 -199 248 0 18 69 104 217
268 59 66 121 135 136 153 44 51 85 120 82 139 -2 9 -4 20 -4 24 -1 3 -13 20
-27 37 -27 33 -47 37 -79 19z"/>
<path d="M3913 5175 c-18 -8 -39 -25 -49 -40 -14 -22 -15 -30 -4 -50 19 -35
115 -152 217 -262 48 -53 93 -101 98 -107 52 -57 125 -156 125 -170 0 -14
-123 -169 -185 -232 -139 -144 -214 -233 -240 -283 -20 -40 -9 -78 37 -116
l30 -25 46 32 c66 47 455 437 534 537 64 80 66 85 53 110 -24 47 -155 192
-329 366 -245 244 -274 265 -333 240z"/>
<path d="M3642 5164 c-18 -16 -152 -319 -152 -347 0 -5 -6 -23 -14 -40 -14
-30 -76 -203 -146 -402 -43 -124 -116 -354 -124 -391 -6 -25 -3 -32 16 -42 48
-24 93 -18 125 16 64 67 264 557 409 1001 24 74 44 144 44 156 0 33 -31 55
-86 61 -39 5 -54 2 -72 -12z"/>
<path d="M899 1988 c-12 -46 -17 -68 -25 -108 -3 -14 -7 -32 -9 -40 -2 -8 -7
-31 -10 -50 -13 -78 -55 -247 -69 -281 -19 -45 -32 -55 -78 -64 -54 -10 -77 1
-97 48 -31 70 -78 95 -147 75 -27 -7 -34 -15 -40 -43 -11 -62 12 -135 56 -173
70 -60 234 -75 333 -29 108 49 152 146 212 457 29 152 27 218 -9 242 -6 4 -32
8 -58 8 -47 0 -47 0 -59 -42z"/>
<path d="M2834 2015 c-118 -35 -169 -98 -227 -280 -40 -127 -54 -220 -48 -311
4 -59 116 -123 223 -128 164 -7 324 111 330 245 3 63 -2 79 -29 92 -29 14
-169 17 -191 3 -15 -9 -15 -50 -1 -117 11 -49 10 -54 -10 -70 -20 -17 -38 -17
-98 -4 -42 10 -48 76 -18 222 40 199 159 294 195 154 24 -91 47 -112 120 -104
58 7 75 32 73 112 -2 108 -38 157 -138 186 -58 17 -123 17 -181 0z"/>
<path d="M3655 2020 c-30 -11 -47 -36 -47 -67 0 -51 72 -82 117 -50 43 32 -19
136 -70 117z"/>
<path d="M3353 2012 c-6 -4 -16 -19 -22 -33 -20 -54 38 -104 97 -83 23 9 27
15 26 47 -1 21 -9 46 -19 57 -18 20 -60 26 -82 12z"/>
<path d="M5090 1784 c-8 -2 -32 -5 -52 -9 -76 -12 -135 -93 -161 -220 -7 -37
-12 -84 -11 -104 1 -20 2 -48 3 -63 2 -50 49 -78 152 -91 58 -7 150 12 195 40
41 26 94 94 94 120 0 10 -22 12 -95 9 -130 -6 -200 11 -162 39 17 12 51 18
177 31 74 7 119 27 121 52 7 79 -13 138 -54 165 -25 16 -165 37 -207 31z m74
-140 c34 -34 9 -66 -54 -67 -58 -1 -67 13 -31 51 32 35 61 40 85 16z"/>
<path d="M6241 1774 c-85 -23 -158 -84 -184 -156 -14 -40 70 -99 190 -133 35
-10 68 -24 75 -32 22 -28 -12 -34 -147 -27 -112 5 -133 4 -144 -10 -11 -13
-10 -21 8 -50 39 -63 138 -83 296 -62 118 17 191 104 161 194 -12 35 -76 70
-139 76 -31 3 -67 11 -80 17 -35 16 -41 46 -12 65 39 26 65 25 92 -2 73 -74
200 -50 186 34 -13 80 -165 123 -302 86z"/>
<path d="M1260 1766 c-99 -21 -125 -46 -144 -137 -13 -64 -15 -260 -2 -290 11
-26 47 -37 122 -35 59 1 78 6 113 29 l41 27 9 -23 c17 -43 152 -58 192 -21 32
29 18 107 -24 136 -15 9 -11 105 8 199 10 46 18 94 20 107 l2 23 -141 -2 c-77
-1 -166 -7 -196 -13z m134 -168 c11 -57 6 -83 -25 -121 -32 -39 -62 -47 -100
-27 -41 23 -8 148 49 182 34 21 68 6 76 -34z"/>
<path d="M1827 1767 c-38 -9 -53 -25 -61 -68 -2 -13 -15 -82 -29 -154 -45
-227 -43 -245 25 -249 74 -5 87 13 119 173 28 143 52 184 102 176 36 -6 48
-26 43 -69 -15 -119 -17 -193 -7 -218 16 -42 55 -61 121 -62 80 0 105 21 96
82 -4 28 -14 50 -28 62 -22 18 -23 24 -23 174 l0 156 -75 1 c-41 1 -114 2
-161 3 -47 1 -102 -2 -122 -7z"/>
<path d="M3343 1761 c-69 -43 -124 -189 -119 -314 3 -87 16 -114 63 -134 84
-35 292 -10 336 40 70 78 105 294 59 356 -27 37 -110 63 -217 68 -77 4 -95 1
-122 -16z m179 -135 c4 -6 8 -28 8 -48 0 -106 -91 -185 -124 -107 -13 30 -13
53 -1 115 9 51 91 79 117 40z"/>
<path d="M3901 1770 c-18 -5 -40 -14 -48 -22 -16 -16 -72 -278 -80 -375 -5
-59 -4 -63 19 -72 28 -10 67 -7 95 8 25 13 37 42 64 160 12 52 28 110 36 128
26 63 96 61 108 -4 13 -70 83 -67 132 6 46 68 20 136 -59 161 -48 15 -215 21
-267 10z"/>
<path d="M4471 1770 c-24 -5 -55 -19 -68 -31 -81 -77 -129 -336 -75 -409 29
-39 28 -45 -14 -106 -30 -43 -36 -61 -36 -100 2 -58 20 -80 81 -93 63 -14 180
-7 217 12 42 22 92 80 116 136 20 48 52 167 62 235 4 21 8 48 11 60 3 12 7 32
9 46 3 14 14 70 25 124 28 133 32 130 -147 133 -75 1 -157 -2 -181 -7z m141
-167 c12 -106 -58 -197 -113 -147 -18 16 -20 27 -16 76 6 70 27 105 64 110 40
5 61 -8 65 -39z m-53 -368 c-23 -61 -51 -87 -82 -76 -28 10 -34 60 -12 95 9
13 35 34 58 45 39 20 42 20 48 3 4 -9 -2 -39 -12 -67z"/>
<path d="M5550 1770 c-64 -11 -63 -8 -105 -231 -35 -186 -37 -207 -15 -229 20
-20 82 -19 107 1 28 24 32 37 69 236 7 37 21 68 35 79 50 40 103 10 95 -54
-14 -105 -17 -189 -7 -214 16 -43 54 -61 124 -61 52 0 64 4 80 24 25 32 18 92
-15 118 -22 19 -23 24 -23 174 l0 155 -70 2 c-169 5 -242 5 -275 0z"/>
</g>
</svg>
